<svg xmlns="http://www.w3.org/2000/svg" width="1920" height="1080"><path d="M967,1470L686,1489L1243,1467Z" fill="#3371ab" stroke="#3371ab" stroke-width="1.51"/><path d="M596,-421L1148,-379L1746,-342Z" fill="#3d79b4" stroke="#3d79b4" stroke-width="1.51"/><path d="M1148,-379L1248,-369L1746,-342Z" fill="#3572ae" stroke="#3572ae" stroke-width="1.51"/><path d="M1248,-369L1455,-331L1746,-342Z" fill="#306eab" stroke="#306eab" stroke-width="1.51"/><path d="M1797,1360L1243,1467L1864,1372Z" fill="#185d9b" stroke="#185d9b" stroke-width="1.51"/><path d="M596,-421L1746,-342L2007,-325Z" fill="#3270ac" stroke="#3270ac" stroke-width="1.51"/><path d="M2071,553L2007,643L2132,820Z" fill="#2a69a5" stroke="#2a69a5" stroke-width="1.51"/><path d="M2082,-186L2056,90L2149,-259Z" fill="#2665a2" stroke="#2665a2" stroke-width="1.51"/><path d="M1243,1467L686,1489L2218,1466Z" fill="#2464a2" stroke="#2464a2" stroke-width="1.51"/><path d="M1864,1372L1243,1467L2218,1466Z" fill="#1d5f9d" stroke="#1d5f9d" stroke-width="1.51"/><path d="M1914,1187L1864,1372L2218,1466Z" fill="#20619e" stroke="#20619e" stroke-width="1.51"/><path d="M1869,300L2071,553L2238,408Z" fill="#2b69a6" stroke="#2b69a6" stroke-width="1.51"/><path d="M2056,90L1869,300L2238,408Z" fill="#2263a1" stroke="#2263a1" stroke-width="1.51"/><path d="M2071,553L2132,820L2238,408Z" fill="#2f6ea9" stroke="#2f6ea9" stroke-width="1.51"/><path d="M2149,-259L2056,90L2238,408Z" fill="#195e9c" stroke="#195e9c" stroke-width="1.51"/><path d="M1914,1187L2218,1466L2242,1215Z" fill="#21619e" stroke="#21619e" stroke-width="1.51"/><path d="M2107,1062L1914,1187L2242,1215Z" fill="#1c5e9d" stroke="#1c5e9d" stroke-width="1.51"/><path d="M2132,820L2107,1062L2242,1215Z" fill="#195d9b" stroke="#195d9b" stroke-width="1.51"/><path d="M2238,408L2132,820L2242,1215Z" fill="#2666a3" stroke="#2666a3" stroke-width="1.51"/><path d="M1871,194L1869,300L2056,90Z" fill="#1b5f9e" stroke="#1b5f9e" stroke-width="1.51"/><path d="M1959,-122L2056,90L2082,-186Z" fill="#2162a0" stroke="#2162a0" stroke-width="1.51"/><path d="M1827,926L2107,1062L2132,820Z" fill="#1a5e9d" stroke="#1a5e9d" stroke-width="1.51"/><path d="M2007,-325L2082,-186L2149,-259Z" fill="#2f6ca9" stroke="#2f6ca9" stroke-width="1.51"/><path d="M2007,643L1935,674L2132,820Z" fill="#2867a4" stroke="#2867a4" stroke-width="1.51"/><path d="M1935,674L1827,926L2132,820Z" fill="#2163a0" stroke="#2163a0" stroke-width="1.51"/><path d="M1827,926L1914,1187L2107,1062Z" fill="#135a9a" stroke="#135a9a" stroke-width="1.51"/><path d="M1869,300L1738,409L2071,553Z" fill="#2767a4" stroke="#2767a4" stroke-width="1.51"/><path d="M2007,-325L1959,-122L2082,-186Z" fill="#2b69a6" stroke="#2b69a6" stroke-width="1.51"/><path d="M1935,674L2007,643L2071,553Z" fill="#2c6aa7" stroke="#2c6aa7" stroke-width="1.51"/><path d="M1738,409L1935,674L2071,553Z" fill="#2e6ca8" stroke="#2e6ca8" stroke-width="1.51"/><path d="M1959,-122L1871,194L2056,90Z" fill="#125a99" stroke="#125a99" stroke-width="1.51"/><path d="M596,-421L766,-377L1148,-379Z" fill="#407cb6" stroke="#407cb6" stroke-width="1.51"/><path d="M1827,926L1734,1065L1914,1187Z" fill="#0e5898" stroke="#0e5898" stroke-width="1.51"/><path d="M1738,409L1689,541L1935,674Z" fill="#2b6aa7" stroke="#2b6aa7" stroke-width="1.51"/><path d="M1746,-342L1959,-122L2007,-325Z" fill="#2c6aa7" stroke="#2c6aa7" stroke-width="1.51"/><path d="M1638,-129L1591,79L1871,194Z" fill="#065798" stroke="#065798" stroke-width="1.51"/><path d="M1704,710L1827,926L1935,674Z" fill="#1f62a0" stroke="#1f62a0" stroke-width="1.51"/><path d="M1638,-129L1871,194L1959,-122Z" fill="#165c9b" stroke="#165c9b" stroke-width="1.51"/><path d="M1746,-342L1638,-129L1959,-122Z" fill="#2565a3" stroke="#2565a3" stroke-width="1.51"/><path d="M1797,1360L1864,1372L1914,1187Z" fill="#1b5e9c" stroke="#1b5e9c" stroke-width="1.51"/><path d="M1689,541L1704,710L1935,674Z" fill="#2566a3" stroke="#2566a3" stroke-width="1.51"/><path d="M1426,1305L1243,1467L1797,1360Z" fill="#1c5f9e" stroke="#1c5f9e" stroke-width="1.51"/><path d="M1734,1065L1617,1247L1797,1360Z" fill="#135a99" stroke="#135a99" stroke-width="1.51"/><path d="M1734,1065L1797,1360L1914,1187Z" fill="#155b9a" stroke="#155b9a" stroke-width="1.51"/><path d="M1616,201L1738,409L1869,300Z" fill="#1c609f" stroke="#1c609f" stroke-width="1.51"/><path d="M1616,201L1869,300L1871,194Z" fill="#195e9d" stroke="#195e9d" stroke-width="1.51"/><path d="M1591,79L1616,201L1871,194Z" fill="#105a9a" stroke="#105a9a" stroke-width="1.51"/><path d="M1616,201L1598,249L1738,409Z" fill="#185e9e" stroke="#185e9e" stroke-width="1.51"/><path d="M1617,1247L1426,1305L1797,1360Z" fill="#135a9a" stroke="#135a9a" stroke-width="1.51"/><path d="M1557,1031L1734,1065L1827,926Z" fill="#075798" stroke="#075798" stroke-width="1.51"/><path d="M1704,710L1557,1031L1827,926Z" fill="#135b9b" stroke="#135b9b" stroke-width="1.51"/><path d="M1555,-14L1591,79L1638,-129Z" fill="#0e5999" stroke="#0e5999" stroke-width="1.51"/><path d="M1424,815L1557,1031L1704,710Z" fill="#165c9c" stroke="#165c9c" stroke-width="1.51"/><path d="M1557,1031L1617,1247L1734,1065Z" fill="#085798" stroke="#085798" stroke-width="1.51"/><path d="M1455,-331L1638,-129L1746,-342Z" fill="#2666a4" stroke="#2666a4" stroke-width="1.51"/><path d="M1523,496L1689,541L1738,409Z" fill="#2566a4" stroke="#2566a4" stroke-width="1.51"/><path d="M1598,249L1523,496L1738,409Z" fill="#1e62a0" stroke="#1e62a0" stroke-width="1.51"/><path d="M1689,541L1523,496L1704,710Z" fill="#2567a4" stroke="#2567a4" stroke-width="1.51"/><path d="M1523,496L1424,815L1704,710Z" fill="#2164a2" stroke="#2164a2" stroke-width="1.51"/><path d="M1557,1031L1426,1101L1617,1247Z" fill="#0e5999" stroke="#0e5999" stroke-width="1.51"/><path d="M1455,-331L1555,-14L1638,-129Z" fill="#1f61a1" stroke="#1f61a1" stroke-width="1.51"/><path d="M1348,74L1598,249L1616,201Z" fill="#135c9c" stroke="#135c9c" stroke-width="1.51"/><path d="M1591,79L1348,74L1616,201Z" fill="#0f5a9a" stroke="#0f5a9a" stroke-width="1.51"/><path d="M1426,1101L1426,1305L1617,1247Z" fill="#155c9b" stroke="#155c9b" stroke-width="1.51"/><path d="M1234,237L1313,503L1523,496Z" fill="#2a6aa7" stroke="#2a6aa7" stroke-width="1.51"/><path d="M1455,-331L1215,-53L1555,-14Z" fill="#2364a3" stroke="#2364a3" stroke-width="1.51"/><path d="M1234,237L1523,496L1598,249Z" fill="#2164a2" stroke="#2164a2" stroke-width="1.51"/><path d="M1348,74L1234,237L1598,249Z" fill="#1b609f" stroke="#1b609f" stroke-width="1.51"/><path d="M1313,503L1424,815L1523,496Z" fill="#2a6ba8" stroke="#2a6ba8" stroke-width="1.51"/><path d="M1555,-14L1348,74L1591,79Z" fill="#0b5899" stroke="#0b5899" stroke-width="1.51"/><path d="M1424,815L1341,844L1426,1101Z" fill="#195f9e" stroke="#195f9e" stroke-width="1.51"/><path d="M1215,-53L1348,74L1555,-14Z" fill="#195e9e" stroke="#195e9e" stroke-width="1.51"/><path d="M1424,815L1426,1101L1557,1031Z" fill="#105a9a" stroke="#105a9a" stroke-width="1.51"/><path d="M1341,844L1264,1026L1426,1101Z" fill="#175e9d" stroke="#175e9d" stroke-width="1.51"/><path d="M1313,503L1110,639L1341,844Z" fill="#2e6daa" stroke="#2e6daa" stroke-width="1.51"/><path d="M1313,503L1341,844L1424,815Z" fill="#2767a5" stroke="#2767a5" stroke-width="1.51"/><path d="M1192,1179L1426,1305L1426,1101Z" fill="#1b609e" stroke="#1b609e" stroke-width="1.51"/><path d="M1248,-369L1215,-53L1455,-331Z" fill="#306daa" stroke="#306daa" stroke-width="1.51"/><path d="M1110,-171L1215,-53L1248,-369Z" fill="#306eab" stroke="#306eab" stroke-width="1.51"/><path d="M1234,237L1149,381L1313,503Z" fill="#2c6ca9" stroke="#2c6ca9" stroke-width="1.51"/><path d="M1192,1179L1243,1467L1426,1305Z" fill="#2363a1" stroke="#2363a1" stroke-width="1.51"/><path d="M1264,1026L1192,1179L1426,1101Z" fill="#1b5f9e" stroke="#1b5f9e" stroke-width="1.51"/><path d="M1110,639L1089,663L1341,844Z" fill="#2e6daa" stroke="#2e6daa" stroke-width="1.51"/><path d="M1215,-53L1234,237L1348,74Z" fill="#1b609f" stroke="#1b609f" stroke-width="1.51"/><path d="M1167,1042L1264,1026L1341,844Z" fill="#1d61a0" stroke="#1d61a0" stroke-width="1.51"/><path d="M1089,663L1167,1042L1341,844Z" fill="#2667a5" stroke="#2667a5" stroke-width="1.51"/><path d="M1215,-53L1046,41L1234,237Z" fill="#1f62a1" stroke="#1f62a1" stroke-width="1.51"/><path d="M1149,381L1110,639L1313,503Z" fill="#3472ae" stroke="#3472ae" stroke-width="1.51"/><path d="M1089,663L959,707L1167,1042Z" fill="#2d6daa" stroke="#2d6daa" stroke-width="1.51"/><path d="M1192,1179L967,1470L1243,1467Z" fill="#2b69a6" stroke="#2b69a6" stroke-width="1.51"/><path d="M1148,-379L1110,-171L1248,-369Z" fill="#3875b0" stroke="#3875b0" stroke-width="1.51"/><path d="M1167,1042L1192,1179L1264,1026Z" fill="#1e61a0" stroke="#1e61a0" stroke-width="1.51"/><path d="M1167,1042L1125,1081L1192,1179Z" fill="#2163a1" stroke="#2163a1" stroke-width="1.51"/><path d="M1046,41L1149,381L1234,237Z" fill="#2869a6" stroke="#2869a6" stroke-width="1.51"/><path d="M959,707L824,996L1167,1042Z" fill="#2b6ba8" stroke="#2b6ba8" stroke-width="1.51"/><path d="M928,1149L967,1470L1192,1179Z" fill="#2b6aa7" stroke="#2b6aa7" stroke-width="1.51"/><path d="M1110,-171L1046,41L1215,-53Z" fill="#2969a6" stroke="#2969a6" stroke-width="1.51"/><path d="M1046,41L788,350L1149,381Z" fill="#2f6eab" stroke="#2f6eab" stroke-width="1.51"/><path d="M824,996L1125,1081L1167,1042Z" fill="#2466a3" stroke="#2466a3" stroke-width="1.51"/><path d="M1125,1081L928,1149L1192,1179Z" fill="#2566a4" stroke="#2566a4" stroke-width="1.51"/><path d="M929,28L788,350L1046,41Z" fill="#2a6aa7" stroke="#2a6aa7" stroke-width="1.51"/><path d="M840,614L1110,639L1149,381Z" fill="#3b79b3" stroke="#3b79b3" stroke-width="1.51"/><path d="M766,-377L1110,-171L1148,-379Z" fill="#3d7ab4" stroke="#3d7ab4" stroke-width="1.51"/><path d="M788,350L840,614L1149,381Z" fill="#3876b1" stroke="#3876b1" stroke-width="1.51"/><path d="M824,996L928,1149L1125,1081Z" fill="#2869a6" stroke="#2869a6" stroke-width="1.51"/><path d="M840,614L959,707L1089,663Z" fill="#3876b1" stroke="#3876b1" stroke-width="1.51"/><path d="M929,28L1046,41L1110,-171Z" fill="#2b6aa8" stroke="#2b6aa8" stroke-width="1.51"/><path d="M766,-377L819,-84L1110,-171Z" fill="#3774b0" stroke="#3774b0" stroke-width="1.51"/><path d="M840,614L1089,663L1110,639Z" fill="#3775b0" stroke="#3775b0" stroke-width="1.51"/><path d="M819,-84L929,28L1110,-171Z" fill="#306fab" stroke="#306fab" stroke-width="1.51"/><path d="M928,1149L765,1363L967,1470Z" fill="#2d6ca7" stroke="#2d6ca7" stroke-width="1.51"/><path d="M840,614L609,803L959,707Z" fill="#316fab" stroke="#316fab" stroke-width="1.51"/><path d="M609,803L824,996L959,707Z" fill="#2a6aa7" stroke="#2a6aa7" stroke-width="1.51"/><path d="M765,1363L686,1489L967,1470Z" fill="#2d6ba7" stroke="#2d6ba7" stroke-width="1.51"/><path d="M591,21L788,350L929,28Z" fill="#2365a3" stroke="#2365a3" stroke-width="1.51"/><path d="M587,1274L765,1363L928,1149Z" fill="#2666a3" stroke="#2666a3" stroke-width="1.51"/><path d="M819,-84L591,21L929,28Z" fill="#2566a4" stroke="#2566a4" stroke-width="1.51"/><path d="M824,996L587,1274L928,1149Z" fill="#2364a2" stroke="#2364a2" stroke-width="1.51"/><path d="M591,21L572,321L788,350Z" fill="#2465a3" stroke="#2465a3" stroke-width="1.51"/><path d="M766,-377L583,-55L819,-84Z" fill="#2e6daa" stroke="#2e6daa" stroke-width="1.51"/><path d="M609,803L589,1011L824,996Z" fill="#1f63a1" stroke="#1f63a1" stroke-width="1.51"/><path d="M589,1011L587,1274L824,996Z" fill="#1c609f" stroke="#1c609f" stroke-width="1.51"/><path d="M498,602L609,803L840,614Z" fill="#2c6ca9" stroke="#2c6ca9" stroke-width="1.51"/><path d="M553,452L498,602L840,614Z" fill="#3270ac" stroke="#3270ac" stroke-width="1.51"/><path d="M788,350L553,452L840,614Z" fill="#3271ad" stroke="#3271ad" stroke-width="1.51"/><path d="M473,-175L583,-55L766,-377Z" fill="#2c6ba8" stroke="#2c6ba8" stroke-width="1.51"/><path d="M583,-55L591,21L819,-84Z" fill="#2264a2" stroke="#2264a2" stroke-width="1.51"/><path d="M277,1324L-64,1480L686,1489Z" fill="#1a5d9c" stroke="#1a5d9c" stroke-width="1.51"/><path d="M596,-421L473,-175L766,-377Z" fill="#3472ae" stroke="#3472ae" stroke-width="1.51"/><path d="M572,321L553,452L788,350Z" fill="#2b6ba7" stroke="#2b6ba7" stroke-width="1.51"/><path d="M587,1274L686,1489L765,1363Z" fill="#2766a3" stroke="#2766a3" stroke-width="1.51"/><path d="M490,50L572,321L591,21Z" fill="#195f9e" stroke="#195f9e" stroke-width="1.51"/><path d="M490,1323L277,1324L686,1489Z" fill="#1e619f" stroke="#1e619f" stroke-width="1.51"/><path d="M587,1274L490,1323L686,1489Z" fill="#2263a1" stroke="#2263a1" stroke-width="1.51"/><path d="M490,50L447,356L572,321Z" fill="#1e61a0" stroke="#1e61a0" stroke-width="1.51"/><path d="M515,798L400,905L589,1011Z" fill="#1a5f9f" stroke="#1a5f9f" stroke-width="1.51"/><path d="M489,1266L587,1274L589,1011Z" fill="#1a5f9d" stroke="#1a5f9d" stroke-width="1.51"/><path d="M-70,-390L114,-251L596,-421Z" fill="#316fab" stroke="#316fab" stroke-width="1.51"/><path d="M410,-214L473,-175L596,-421Z" fill="#2d6ba8" stroke="#2d6ba8" stroke-width="1.51"/><path d="M498,602L515,798L609,803Z" fill="#2566a4" stroke="#2566a4" stroke-width="1.51"/><path d="M515,798L589,1011L609,803Z" fill="#1f62a1" stroke="#1f62a1" stroke-width="1.51"/><path d="M447,356L553,452L572,321Z" fill="#2667a5" stroke="#2667a5" stroke-width="1.51"/><path d="M400,905L489,1266L589,1011Z" fill="#115a9a" stroke="#115a9a" stroke-width="1.51"/><path d="M583,-55L490,50L591,21Z" fill="#195e9d" stroke="#195e9d" stroke-width="1.51"/><path d="M114,-251L410,-214L596,-421Z" fill="#2a69a7" stroke="#2a69a7" stroke-width="1.51"/><path d="M489,1266L490,1323L587,1274Z" fill="#1d609e" stroke="#1d609e" stroke-width="1.51"/><path d="M473,-175L490,50L583,-55Z" fill="#1d61a0" stroke="#1d61a0" stroke-width="1.51"/><path d="M400,905L213,972L489,1266Z" fill="#065798" stroke="#065798" stroke-width="1.51"/><path d="M216,167L447,356L490,50Z" fill="#145c9c" stroke="#145c9c" stroke-width="1.51"/><path d="M291,510L498,602L553,452Z" fill="#2a6ba8" stroke="#2a6ba8" stroke-width="1.51"/><path d="M447,356L291,510L553,452Z" fill="#2667a4" stroke="#2667a4" stroke-width="1.51"/><path d="M150,1154L277,1324L489,1266Z" fill="#105a99" stroke="#105a99" stroke-width="1.51"/><path d="M213,972L150,1154L489,1266Z" fill="#0c5899" stroke="#0c5899" stroke-width="1.51"/><path d="M473,-175L410,-214L490,50Z" fill="#1f62a1" stroke="#1f62a1" stroke-width="1.51"/><path d="M498,602L211,753L515,798Z" fill="#2163a2" stroke="#2163a2" stroke-width="1.51"/><path d="M211,753L400,905L515,798Z" fill="#195e9e" stroke="#195e9e" stroke-width="1.51"/><path d="M410,-214L102,-17L490,50Z" fill="#135b9b" stroke="#135b9b" stroke-width="1.51"/><path d="M102,-17L216,167L490,50Z" fill="#075798" stroke="#075798" stroke-width="1.51"/><path d="M291,510L211,753L498,602Z" fill="#2365a3" stroke="#2365a3" stroke-width="1.51"/><path d="M489,1266L277,1324L490,1323Z" fill="#185d9c" stroke="#185d9c" stroke-width="1.51"/><path d="M182,355L291,510L447,356Z" fill="#1f63a1" stroke="#1f63a1" stroke-width="1.51"/><path d="M216,167L182,355L447,356Z" fill="#1a5f9e" stroke="#1a5f9e" stroke-width="1.51"/><path d="M114,-251L102,-17L410,-214Z" fill="#2464a3" stroke="#2464a3" stroke-width="1.51"/><path d="M211,753L213,972L400,905Z" fill="#145c9c" stroke="#145c9c" stroke-width="1.51"/><path d="M-10,1255L-64,1480L277,1324Z" fill="#2665a2" stroke="#2665a2" stroke-width="1.51"/><path d="M42,458L211,753L291,510Z" fill="#2c6ba9" stroke="#2c6ba9" stroke-width="1.51"/><path d="M182,355L42,458L291,510Z" fill="#2969a7" stroke="#2969a7" stroke-width="1.51"/><path d="M150,1154L-10,1255L277,1324Z" fill="#1e609f" stroke="#1e609f" stroke-width="1.51"/><path d="M42,458L-93,832L211,753Z" fill="#2e6da9" stroke="#2e6da9" stroke-width="1.51"/><path d="M-93,832L-11,962L211,753Z" fill="#2666a4" stroke="#2666a4" stroke-width="1.51"/><path d="M211,753L-11,962L213,972Z" fill="#1d61a0" stroke="#1d61a0" stroke-width="1.51"/><path d="M-11,962L150,1154L213,972Z" fill="#165c9c" stroke="#165c9c" stroke-width="1.51"/><path d="M102,-17L-32,75L216,167Z" fill="#195e9d" stroke="#195e9d" stroke-width="1.51"/><path d="M-61,253L182,355L216,167Z" fill="#2365a3" stroke="#2365a3" stroke-width="1.51"/><path d="M-32,75L-61,253L216,167Z" fill="#2264a2" stroke="#2264a2" stroke-width="1.51"/><path d="M-22,-140L102,-17L114,-251Z" fill="#2a69a7" stroke="#2a69a7" stroke-width="1.51"/><path d="M-61,253L42,458L182,355Z" fill="#2c6aa8" stroke="#2c6aa8" stroke-width="1.51"/><path d="M-11,962L-10,1255L150,1154Z" fill="#1f61a0" stroke="#1f61a0" stroke-width="1.51"/><path d="M-283,555L-93,832L42,458Z" fill="#3976b1" stroke="#3976b1" stroke-width="1.51"/><path d="M-70,-390L-22,-140L114,-251Z" fill="#3671ae" stroke="#3671ae" stroke-width="1.51"/><path d="M-22,-140L-32,75L102,-17Z" fill="#2565a3" stroke="#2565a3" stroke-width="1.51"/><path d="M-70,-390L-170,-227L-22,-140Z" fill="#3a75b1" stroke="#3a75b1" stroke-width="1.51"/><path d="M-155,-76L-32,75L-22,-140Z" fill="#2b69a7" stroke="#2b69a7" stroke-width="1.51"/><path d="M-11,962L-267,1046L-10,1255Z" fill="#2766a4" stroke="#2766a4" stroke-width="1.51"/><path d="M-267,1046L-266,1222L-10,1255Z" fill="#2d6ca8" stroke="#2d6ca8" stroke-width="1.51"/><path d="M-61,253L-205,313L42,458Z" fill="#326fac" stroke="#326fac" stroke-width="1.51"/><path d="M-205,313L-283,555L42,458Z" fill="#3976b2" stroke="#3976b2" stroke-width="1.51"/><path d="M-178,72L-61,253L-32,75Z" fill="#2868a6" stroke="#2868a6" stroke-width="1.51"/><path d="M-155,-76L-178,72L-32,75Z" fill="#2868a6" stroke="#2868a6" stroke-width="1.51"/><path d="M-225,1392L-64,1480L-10,1255Z" fill="#2f6ca8" stroke="#2f6ca8" stroke-width="1.51"/><path d="M-266,1222L-225,1392L-10,1255Z" fill="#306da9" stroke="#306da9" stroke-width="1.51"/><path d="M-93,832L-267,1046L-11,962Z" fill="#2a69a7" stroke="#2a69a7" stroke-width="1.51"/><path d="M-283,555L-300,805L-93,832Z" fill="#3976b1" stroke="#3976b1" stroke-width="1.51"/><path d="M-170,-227L-155,-76L-22,-140Z" fill="#3470ad" stroke="#3470ad" stroke-width="1.51"/><path d="M-178,72L-205,313L-61,253Z" fill="#2f6daa" stroke="#2f6daa" stroke-width="1.51"/><path d="M-300,805L-267,1046L-93,832Z" fill="#326fac" stroke="#326fac" stroke-width="1.51"/><path d="M-170,-227L-178,72L-155,-76Z" fill="#326fac" stroke="#326fac" stroke-width="1.51"/><path d="M-283,555L-178,72L-170,-227Z" fill="#2f6daa" stroke="#2f6daa" stroke-width="1.51"/><path d="M-283,555L-205,313L-178,72Z" fill="#3774b0" stroke="#3774b0" stroke-width="1.51"/><path d="M-267,1046L-300,805L-266,1222Z" fill="#2f6ca9" stroke="#2f6ca9" stroke-width="1.51"/></svg>